# xmcd
#
# Track frame offsets:
#	150
#	14434
#	25868
#	42087
#	53886
#	72877
#	90847
#	108494
#	126588
#	136335
#
# Disc length: 2023 seconds
#
# Revision: 0
# Processed by: cddbd v1.5.2PL0 Copyright (c) Steve Scherf et al.
# Submitted via: audiograbber 1.83.01
#
DISCID=8107e50a
DTITLE=Shenandoah - Shenandoah Christmas
DYEAR=1996
DGENRE=Country Christmas
TTITLE0=White Christmas
TTITLE1=Winter Wonderland
TTITLE2=The Christmas Song (Chestnuts Roasting On An Open Fire)
TTITLE3=Rudolph The Red Nosed Reindeer
TTITLE4=Have Yourself A Merry Little Christmas
TTITLE5=O Come All Ye Faithful
TTITLE6=I'll Be Home For Christmas
TTITLE7=O Little Town Of Bethlehem
TTITLE8=Santa Claus Is Coming To Town
TTITLE9=There's A Way In The Manger
EXTD=
EXTT0=
EXTT1=
EXTT2=
EXTT3=
EXTT4=
EXTT5=
EXTT6=
EXTT7=
EXTT8=
EXTT9=
PLAYORDER=
